<svg width="438" height="46" viewBox="0 0 438 46" fill="none" xmlns="http://www.w3.org/2000/svg">
<path d="M28.4 32.36H34.784V0.919998H28.4V32.36ZM0.272 25.784H21.728V4.424H0.272V25.784ZM6.512 9.416H15.536V20.792H6.512V9.416ZM35.888 44.216V39.128H11.696V29.576H5.36V44.216H35.888ZM44.3803 17.864L46.6843 22.808C50.5563 22.264 53.8203 21.224 56.4763 19.688C59.1323 18.152 61.1323 16.232 62.4763 13.928C63.8203 16.232 65.8203 18.152 68.4763 19.688C71.1323 21.224 74.3963 22.264 78.2683 22.808L80.5243 17.864C78.2843 17.576 76.3003 17.112 74.5723 16.472C72.8763 15.832 71.4363 15.08 70.2523 14.216C69.0683 13.352 68.1403 12.408 67.4683 11.384C66.8283 10.328 66.4283 9.272 66.2683 8.216H78.7963V3.176H46.0123V8.216H58.7323C58.5723 9.272 58.1563 10.328 57.4843 11.384C56.8443 12.408 55.9163 13.352 54.7003 14.216C53.5163 15.08 52.0603 15.832 50.3323 16.472C48.6363 17.112 46.6523 17.576 44.3803 17.864ZM65.5003 30.392H82.4443V25.352H42.5083V30.392H59.1643V45.224H65.5003V30.392ZM126.889 40.184V35.048H110.041V24.968H122.665V19.928H97.7045V4.28H91.3685V24.968H103.705V35.048H86.8565V40.184H126.889ZM132.933 16.184L134.805 20.888C138.965 20.6 142.373 19.912 145.029 18.824C147.717 17.736 149.781 16.312 151.221 14.552C152.597 16.312 154.597 17.736 157.221 18.824C159.877 19.912 163.333 20.6 167.589 20.888L169.461 16.184C167.125 16.056 165.077 15.8 163.317 15.416C161.589 15 160.117 14.504 158.901 13.928C157.717 13.352 156.789 12.712 156.117 12.008C155.477 11.304 155.061 10.584 154.869 9.848H167.349V4.904H154.341V1.016H148.005V4.904H135.045V9.848H147.525C147.333 10.584 146.901 11.304 146.229 12.008C145.589 12.712 144.661 13.352 143.445 13.928C142.261 14.504 140.805 15 139.077 15.416C137.349 15.8 135.301 16.056 132.933 16.184ZM171.189 28.04V23.096H154.341V18.872H148.005V23.096H131.253V28.04H171.189ZM151.125 30.152C146.069 30.152 142.245 30.792 139.653 32.072C137.093 33.352 135.813 35.208 135.813 37.64C135.813 40.072 137.157 41.928 139.845 43.208C142.533 44.52 146.293 45.176 151.125 45.176C155.957 45.176 159.717 44.52 162.405 43.208C165.125 41.928 166.485 40.072 166.485 37.64C166.485 35.208 165.125 33.352 162.405 32.072C159.717 30.792 155.957 30.152 151.125 30.152ZM151.125 40.472C145.173 40.472 142.197 39.528 142.197 37.64C142.197 36.616 142.933 35.896 144.405 35.48C145.877 35.032 148.117 34.808 151.125 34.808C154.133 34.808 156.373 35.032 157.845 35.48C159.317 35.896 160.053 36.616 160.053 37.64C160.053 39.528 157.077 40.472 151.125 40.472ZM210.257 23.192H216.689V17.912H210.257V0.919998H203.921V45.128H210.257V23.192ZM191.921 10.76V4.328H185.537V10.76C185.537 12.808 185.313 14.856 184.865 16.904C184.449 18.92 183.793 20.824 182.897 22.616C182.033 24.408 180.913 26.024 179.537 27.464C178.193 28.904 176.593 30.056 174.737 30.92L178.529 36.056C181.025 34.84 183.105 33.128 184.769 30.92C186.465 28.68 187.793 26.152 188.753 23.336C189.681 26.056 190.929 28.424 192.497 30.44C194.065 32.456 196.001 34.056 198.305 35.24L202.145 30.248C200.385 29.384 198.849 28.264 197.537 26.888C196.257 25.48 195.201 23.912 194.369 22.184C193.537 20.456 192.913 18.616 192.497 16.664C192.113 14.712 191.921 12.744 191.921 10.76ZM250.381 32.888H256.765V0.919998H250.381V32.888ZM244.381 27.416L247.597 22.568C245.837 21.992 244.301 21.24 242.989 20.312C241.677 19.352 240.589 18.296 239.725 17.144C238.893 15.992 238.269 14.776 237.853 13.496C237.437 12.184 237.229 10.888 237.229 9.608V9.08H245.965V4.088H221.917V9.08H230.797V9.608C230.797 10.984 230.589 12.36 230.173 13.736C229.757 15.112 229.117 16.408 228.253 17.624C227.389 18.84 226.285 19.944 224.941 20.936C223.629 21.896 222.061 22.664 220.237 23.24L223.453 28.184C226.045 27.352 228.221 26.136 229.981 24.536C231.741 22.904 233.117 20.984 234.109 18.776C235.133 20.792 236.477 22.552 238.141 24.056C239.805 25.528 241.885 26.648 244.381 27.416ZM257.869 44.36V39.32H233.677V30.008H227.341V44.36H257.869ZM299.05 22.808H305.482V17.576H299.05V0.919998H292.714V45.128H299.05V22.808ZM276.298 3.992C274.634 3.992 273.082 4.36 271.642 5.096C270.234 5.832 269.002 6.888 267.946 8.264C266.922 9.608 266.122 11.256 265.546 13.208C264.97 15.128 264.682 17.304 264.682 19.736C264.682 22.168 264.97 24.36 265.546 26.312C266.122 28.264 266.922 29.928 267.946 31.304C269.002 32.68 270.234 33.736 271.642 34.472C273.082 35.208 274.634 35.576 276.298 35.576C277.962 35.576 279.498 35.208 280.906 34.472C282.346 33.736 283.578 32.68 284.602 31.304C285.626 29.928 286.426 28.264 287.002 26.312C287.61 24.36 287.914 22.168 287.914 19.736C287.914 17.304 287.61 15.128 287.002 13.208C286.426 11.256 285.626 9.608 284.602 8.264C283.578 6.888 282.346 5.832 280.906 5.096C279.498 4.36 277.962 3.992 276.298 3.992ZM276.298 29.816C274.634 29.816 273.29 28.968 272.266 27.272C271.274 25.544 270.778 23.032 270.778 19.736C270.778 16.44 271.274 13.944 272.266 12.248C273.29 10.552 274.634 9.704 276.298 9.704C277.93 9.704 279.258 10.552 280.282 12.248C281.306 13.944 281.818 16.44 281.818 19.736C281.818 23.032 281.306 25.544 280.282 27.272C279.258 28.968 277.93 29.816 276.298 29.816ZM343.446 23H349.638V17.768H343.446V0.871999H337.11V45.032H343.446V23ZM331.686 5.144H311.382V10.184H325.398C325.334 11.24 325.222 12.248 325.062 13.208C324.902 14.168 324.71 15.112 324.486 16.04L309.03 16.952L309.846 22.328L322.662 21.08C321.414 23.512 319.67 25.768 317.43 27.848C315.19 29.928 312.262 31.864 308.646 33.656L312.006 38.552C316.134 36.44 319.478 34.152 322.038 31.688C324.598 29.224 326.582 26.6 327.99 23.816C329.43 21 330.406 18.04 330.918 14.936C331.43 11.8 331.686 8.536 331.686 5.144ZM389.858 45.224V0.871999H383.522V45.224H389.858ZM366.098 3.992C364.434 3.992 362.882 4.36 361.442 5.096C360.034 5.832 358.818 6.888 357.794 8.264C356.77 9.608 355.954 11.256 355.346 13.208C354.77 15.128 354.482 17.304 354.482 19.736C354.482 22.168 354.77 24.36 355.346 26.312C355.954 28.264 356.77 29.928 357.794 31.304C358.818 32.68 360.034 33.736 361.442 34.472C362.882 35.208 364.434 35.576 366.098 35.576C367.762 35.576 369.298 35.208 370.706 34.472C372.146 33.736 373.378 32.68 374.402 31.304C375.426 29.928 376.226 28.264 376.802 26.312C377.41 24.36 377.714 22.168 377.714 19.736C377.714 17.304 377.41 15.128 376.802 13.208C376.226 11.256 375.426 9.608 374.402 8.264C373.378 6.888 372.146 5.832 370.706 5.096C369.298 4.36 367.762 3.992 366.098 3.992ZM366.098 9.704C367.73 9.704 369.058 10.552 370.082 12.248C371.106 13.944 371.618 16.44 371.618 19.736C371.618 23.032 371.106 25.544 370.082 27.272C369.058 28.968 367.73 29.816 366.098 29.816C364.466 29.816 363.138 28.968 362.114 27.272C361.09 25.544 360.578 23.032 360.578 19.736C360.578 16.44 361.09 13.944 362.114 12.248C363.138 10.552 364.466 9.704 366.098 9.704ZM408.142 10.952V3.8H401.854V27.368H433.294V3.8H427.054V10.952H408.142ZM427.054 22.328H408.142V15.896H427.054V22.328ZM437.662 39.896V34.712H397.63V39.896H437.662Z" fill="#2563EB"/>
</svg>
